<svg width="36" height="36" viewBox="0 0 36 36" fill="none" xmlns="http://www.w3.org/2000/svg">
<path d="M14.7523 3.64181C14.0853 4.6812 13.9285 5.8221 13.9054 6.57444C13.5579 6.8559 13.3449 7.22905 13.3118 7.69814C13.3103 8.18112 13.5698 8.5287 13.8928 8.75864C13.251 8.96474 12.7805 9.57191 12.7805 10.2783C12.7805 11.1514 13.4987 11.8696 14.3718 11.8696C14.4468 11.8696 14.5152 11.8648 14.576 11.8616C14.7676 12.582 15.1147 13.3812 15.7546 14.0437C15.9648 14.2613 16.2076 14.4613 16.4824 14.6356L16.1247 16.2621L15.849 16.1243C15.644 16.0204 15.3955 16.0601 15.2332 16.2229L14.1841 17.272L10.8928 17.6877C9.51659 17.985 8.73949 19.0168 8.38105 20.0854C8.0226 21.154 8.00475 22.3003 8.00475 23.0875V24.3678H6.92768C6.25914 24.3678 5.70549 24.9214 5.70549 25.59V33.2268C5.70549 33.8954 6.25914 34.4532 6.92768 34.4532H14.5635C15.2321 34.4532 15.7857 33.8954 15.7857 33.2268V32.3291H17.0245V33.2268C17.0245 33.8953 17.5824 34.4532 18.2509 34.4532H23.234C23.9024 34.4532 24.4562 33.8953 24.4562 33.2268V32.3291H29.7658C30.059 32.3279 30.2957 32.0894 30.2945 31.7963V26.2524V23.0865C30.2945 22.2993 30.2766 21.154 29.9182 20.0854C29.5598 19.0168 28.7796 17.985 27.4033 17.6877L24.112 17.272L23.0619 16.2229C22.9003 16.0622 22.6542 16.0225 22.4503 16.1244L22.1745 16.2621L21.8117 14.6274C22.0809 14.455 22.3181 14.2578 22.5249 14.0437C23.1652 13.3808 23.514 12.5822 23.7056 11.8616C23.7656 11.8664 23.8332 11.8696 23.9078 11.8696C24.7809 11.8696 25.5032 11.1525 25.5032 10.2794C25.5032 9.57791 25.0371 8.97405 24.4012 8.7638C24.7257 8.53387 24.9859 8.18452 24.9859 7.7308C24.9727 7.27608 24.7542 6.85917 24.394 6.56306C24.3695 5.8106 24.2113 4.6765 23.5481 3.64283C22.8138 2.49854 21.411 1.54675 19.1476 1.54675C16.8842 1.54675 15.4865 2.49854 14.7523 3.64283V3.64181ZM19.1476 2.60725C21.1302 2.60725 22.0914 3.33531 22.6546 4.21298C23.0399 4.81354 23.2166 5.51258 23.29 6.09032C23.1011 6.05843 22.8991 6.04173 22.6857 6.04269H15.6096C15.3982 6.04203 15.1976 6.06066 15.0083 6.09558C15.0814 5.51683 15.2583 4.81542 15.6448 4.21307C16.208 3.3354 17.165 2.6073 19.1476 2.6073V2.60725ZM19.1476 7.10109H22.6878C23.1829 7.09949 23.5067 7.22224 23.6892 7.35607C24.0365 7.70336 23.8281 7.87684 23.6851 7.95945C23.443 8.07967 23.0169 8.18724 22.5137 8.25691C21.5072 8.39627 20.192 8.40252 19.1477 8.40221C18.1034 8.40265 16.7924 8.39579 15.7859 8.25691C15.2827 8.18723 14.8566 8.07963 14.6145 7.95945C14.2548 7.69244 14.4284 7.45976 14.6359 7.32726C14.8227 7.19811 15.1278 7.0994 15.6097 7.10109H19.1476ZM21.7609 13.3074C21.2183 13.8692 20.4332 14.2829 19.1403 14.2829C17.8475 14.2829 17.0613 13.8692 16.5187 13.3074C15.9914 12.7615 15.699 12.0399 15.5515 11.3875C15.5448 11.3614 15.5362 11.3357 15.5256 11.3109L15.5349 11.3045C15.4925 11.1461 15.357 10.9525 15.1949 10.866C15.0328 10.7796 14.8968 10.7794 14.7989 10.7799C14.6033 10.7812 14.4848 10.8068 14.3718 10.8068C14.0724 10.8068 13.8431 10.5775 13.8431 10.2781C13.8431 9.98093 14.0715 9.75285 14.3677 9.74945C14.3877 9.75078 14.4066 9.75105 14.4309 9.75743C14.7177 9.82185 15.002 9.64009 15.0653 9.35317L15.0778 9.21317C15.2587 9.25128 15.4472 9.28364 15.6418 9.31059C16.7668 9.46653 18.103 9.46347 19.1477 9.46299C20.1923 9.46344 21.5337 9.46462 22.6587 9.31059C22.8468 9.28444 23.0287 9.25366 23.204 9.21731C23.2024 9.2594 23.2056 9.30277 23.2144 9.34582C23.2742 9.63233 23.5549 9.8155 23.8416 9.75631C23.8665 9.74994 23.8901 9.74993 23.912 9.74833C24.2082 9.75312 24.4407 9.97981 24.4407 10.277C24.4407 10.5764 24.2073 10.8057 23.9079 10.8057C23.7949 10.8057 23.6765 10.7802 23.4808 10.7788C23.383 10.7781 23.2511 10.7836 23.089 10.869C22.9268 10.9554 22.7914 11.1451 22.7406 11.3386C22.5856 12.029 22.2912 12.7572 21.761 13.3062L21.7609 13.3074ZM20.828 15.0904L21.194 16.7511L19.1497 17.7732L17.1023 16.7501L17.4693 15.0956C17.9588 15.2539 18.5157 15.3444 19.1404 15.3444C19.7726 15.3444 20.3343 15.2521 20.828 15.0904ZM15.7153 17.2445L18.3411 18.5569L17.3221 19.917L15.1825 17.7774L15.7153 17.2445ZM22.5841 17.2445L23.1169 17.7774L20.9773 19.917L19.9593 18.5569L22.5841 17.2445ZM24.0603 18.3351L27.1836 18.73C28.1639 18.9442 28.6251 19.5716 28.9117 20.426C29.199 21.2823 29.2331 22.324 29.2331 23.086V25.7232H26.7565V23.086C26.7576 22.7928 26.5211 22.5542 26.2279 22.5532C25.9331 22.552 25.6939 22.7912 25.695 23.086V31.2671H24.4562V27.1807C24.4562 26.5122 23.9025 25.9585 23.2341 25.9585H22.2399C22.0191 25.3431 21.4287 24.897 20.742 24.897C20.0552 24.897 19.4627 25.3431 19.2409 25.9585H18.2509C17.5825 25.9585 17.0246 26.5122 17.0246 27.1807V31.2671H15.7858V25.5895C15.7858 24.9209 15.2322 24.3673 14.5636 24.3673H12.6044V23.086C12.6054 22.7912 12.3663 22.552 12.0715 22.5532C11.7783 22.5542 11.5417 22.7928 11.5429 23.086V24.3673H9.06323V23.087C9.06323 22.3251 9.10043 21.2823 9.3877 20.426C9.6743 19.5716 10.1355 18.9442 11.1158 18.73L14.2371 18.3361L17.0049 21.0998C17.2327 21.3281 17.6097 21.3022 17.8041 21.0448L19.1497 19.2524L20.4953 21.0448C20.6897 21.3021 21.0667 21.328 21.2945 21.0998L24.0603 18.3351ZM22.6857 23.3648C22.3942 23.366 22.1581 23.602 22.157 23.8935C22.1559 24.1867 22.3925 24.4252 22.6857 24.4264H23.2776C23.5707 24.4252 23.8074 24.1867 23.8063 23.8935C23.8052 23.602 23.5691 23.366 23.2776 23.3648H22.6857ZM6.92776 25.4298H8.887V27.02C8.88806 27.3133 9.12661 27.5498 9.41983 27.5487H12.0715C12.3648 27.5498 12.6033 27.3133 12.6044 27.02V25.4298H14.5636C14.6624 25.4298 14.7243 25.4915 14.7243 25.5905V33.2264C14.7243 33.3252 14.6624 33.3913 14.5636 33.3913H12.6044V31.7959C12.6033 31.4329 12.2474 31.1775 11.9036 31.2941L10.5207 31.7534L9.65411 31.3221C9.30151 31.146 8.88761 31.4017 8.887 31.7959V33.3913H6.92776C6.82894 33.3913 6.76293 33.3251 6.76293 33.2264V25.5905C6.76293 25.4916 6.82894 25.4298 6.92776 25.4298ZM9.94852 25.4298H11.5429V26.4913H9.94852V25.4298ZM21.2717 26.4913C21.2728 26.7845 21.5114 27.0212 21.8045 27.02H23.2341C23.333 27.02 23.3947 27.0817 23.3947 27.1807V33.2264C23.3947 33.3252 23.3329 33.3913 23.2341 33.3913H18.2509C18.152 33.3913 18.0861 33.3252 18.0861 33.2264V27.1807C18.0861 27.0818 18.152 27.02 18.2509 27.02H19.6805C19.972 27.0189 20.208 26.7829 20.2092 26.4913C20.2092 26.2013 20.4291 25.9725 20.7285 25.9585C21.0414 25.9585 21.2717 26.1919 21.2717 26.4913ZM26.7565 26.7847H29.2331V31.2671H26.7565V26.7847ZM19.1476 28.0815C18.8557 28.0827 18.6195 28.3193 18.6189 28.6113C18.6179 28.9044 18.8545 29.1429 19.1476 29.1441H22.3332C22.628 29.1453 22.8672 28.906 22.866 28.6113C22.8655 28.3177 22.6267 28.0804 22.3332 28.0815H19.1476ZM19.1476 29.9392C18.8545 29.9403 18.6178 30.1789 18.6189 30.4721C18.62 30.7636 18.8561 30.9996 19.1476 31.0007H22.3332C22.6263 31.0019 22.8649 30.7652 22.866 30.4721C22.8671 30.1773 22.628 29.938 22.3332 29.9392H19.1476ZM19.1499 31.7958C18.8551 31.7947 18.6159 32.0339 18.617 32.3286C18.6176 32.6222 18.8563 32.8595 19.1499 32.8584C19.4418 32.8573 19.678 32.6206 19.6785 32.3286C19.6796 32.0355 19.443 31.797 19.1499 31.7958ZM20.7442 31.7958C20.4495 31.7947 20.2102 32.0339 20.2114 32.3286C20.2119 32.6222 20.4507 32.8595 20.7442 32.8584C21.0361 32.8572 21.2723 32.6205 21.2729 32.3286C21.274 32.0355 21.0373 31.797 20.7442 31.7958ZM11.543 32.5329V33.3912H9.94856V32.6542L10.2419 32.8034C10.3686 32.8665 10.5153 32.8758 10.6493 32.8304L11.543 32.5329Z" fill="#F76600"/>
</svg>
