<svg width="10" height="10" viewBox="0 0 10 10" fill="none" xmlns="http://www.w3.org/2000/svg">
<g clip-path="url(#clip0_1_65)">
<path d="M9.75394 4.4064L5.59429 0.246729C5.26621 -0.081348 4.73412 -0.081348 4.40604 0.246729C4.07797 0.574807 4.07797 1.1069 4.40604 1.43497L7.97119 5.0001L4.40604 8.56522C4.07797 8.89329 4.07797 9.42538 4.40604 9.75346C4.73412 10.0815 5.26621 10.0815 5.59429 9.75346L9.75394 5.59381C10.082 5.26655 10.082 4.73447 9.75394 4.4064ZM4.75244 4.15451L1.45003 0.673905C1.11819 0.324603 0.580712 0.324603 0.248877 0.673905C-0.0829589 1.02321 -0.0829589 1.58986 0.248877 1.93958L2.95093 4.78735L0.248877 7.63511C-0.0829589 7.98443 -0.0829589 8.55147 0.248877 8.90079C0.580712 9.25011 1.11819 9.25011 1.45003 8.90079L4.75244 5.42019C5.08427 5.07089 5.08427 4.50424 4.75244 4.15451Z" fill="white"/>
</g>
<defs>
<clipPath id="clip0_1_65">
<rect width="10" height="10" fill="white"/>
</clipPath>
</defs>
</svg>
